<?xml version="1.0" encoding="utf-8"?>
<!-- Generator: Adobe Illustrator 25.0.1, SVG Export Plug-In . SVG Version: 6.00 Build 0)  -->
<svg version="1.1" id="Layer_1" xmlns="http://www.w3.org/2000/svg" xmlns:xlink="http://www.w3.org/1999/xlink" x="0px" y="0px"
	 viewBox="0 0 64 64" style="enable-background:new 0 0 64 64;" xml:space="preserve">
<style type="text/css">
	.st0{fill:#FFFFFF;}
</style>
<g>
	<path class="st0" d="M47.61,2.87l-3.06,5.31c1.89,1.09,3.63,2.43,5.19,3.99c2.31,2.31,4.12,4.99,5.38,7.98
		c1.31,3.09,1.97,6.37,1.97,9.76s-0.66,6.68-1.97,9.76c-1.26,2.99-3.07,5.67-5.38,7.98c-2.31,2.31-4.99,4.12-7.98,5.38
		C38.68,54.34,35.39,55,32,55s-6.68-0.66-9.76-1.97c-2.99-1.26-5.67-3.07-7.98-5.38c-2.31-2.31-4.12-4.99-5.38-7.98
		c-1.31-3.09-1.97-6.37-1.97-9.76c0-2.19,0.28-4.35,0.83-6.43c0.54-2.02,1.33-3.98,2.35-5.8c2.02-3.61,4.93-6.7,8.42-8.92
		c0.31-0.2,0.62-0.39,0.94-0.57l-3.07-5.31c-0.4,0.23-0.79,0.47-1.18,0.71C6.53,9.13,0.78,18.85,0.78,29.91
		c0,17.24,13.98,31.22,31.22,31.22s31.22-13.98,31.22-31.22C63.22,18.36,56.94,8.27,47.61,2.87z"/>
</g>
</svg>
